HIERARCHY
ROOT Hips
{
  OFFSET 5.84602e-005 68.8428 3.50346
  CHANNELS 6 Xposition Yposition Zposition Zrotation Xrotation Yrotation
  JOINT Spine
  {
    OFFSET 0 8.597 -4.6522
    CHANNELS 3 Zrotation Xrotation Yrotation
    JOINT Spine1
    {
      OFFSET 0 7.8454 0.4098
      CHANNELS 3 Zrotation Xrotation Yrotation
      JOINT Spine2
      {
        OFFSET 0 9.7078 -2.1609
        CHANNELS 3 Zrotation Xrotation Yrotation
        JOINT Neck
        {
          OFFSET 0 21.8761 -0.4549
          CHANNELS 3 Zrotation Xrotation Yrotation
          JOINT Head
          {
            OFFSET 0 12.3537 3.3602
            CHANNELS 3 Zrotation Xrotation Yrotation
            End Site
            {
              OFFSET 0.0001 18.9506 0.5657
            }
          }
        }
        JOINT LeftShoulder
        {
          OFFSET 2.2086 21.1115 7.2329
          CHANNELS 3 Zrotation Xrotation Yrotation
          JOINT LeftArm
          {
            OFFSET 13.1193 3.0282 -4.8998
            CHANNELS 3 Zrotation Xrotation Yrotation
            JOINT LeftForeArm
            {
              OFFSET 27.4081 -0.0973053 -0.2375
              CHANNELS 3 Zrotation Xrotation Yrotation
              JOINT LeftHand
              {
                OFFSET 22.8641 0.0662994 -0.1369
                CHANNELS 3 Zrotation Xrotation Yrotation
                JOINT LeftHandIndex1
                {
                  OFFSET 8.8614 0.775009 2.4612
                  CHANNELS 3 Zrotation Xrotation Yrotation
                  JOINT LeftHandIndex2
                  {
                    OFFSET 3.3146 -0.808304 0.5841
                    CHANNELS 3 Zrotation Xrotation Yrotation
                    JOINT LeftHandIndex3
                    {
                      OFFSET 2.2628 -0.552002 0.3989
                      CHANNELS 3 Zrotation Xrotation Yrotation
                      End Site
                      {
                        OFFSET 1.6102 -0.4807 0.2612
                      }
                    }
                  }
                }
                JOINT LeftHandMiddle1
                {
                  OFFSET 8.9937 0.895004 0.2143
                  CHANNELS 3 Zrotation Xrotation Yrotation
                  JOINT LeftHandMiddle2
                  {
                    OFFSET 4.0984 0.0113983 -0.0242
                    CHANNELS 3 Zrotation Xrotation Yrotation
                    JOINT LeftHandMiddle3
                    {
                      OFFSET 2.2716 0.00689697 -0.0138001
                      CHANNELS 3 Zrotation Xrotation Yrotation
                      End Site
                      {
                        OFFSET 2.0404 -0.1441 0.0027
                      }
                    }
                  }
                }
                JOINT LeftHandRing1
                {
                  OFFSET 8.5234 0.597198 -2.0164
                  CHANNELS 3 Zrotation Xrotation Yrotation
                  JOINT LeftHandRing2
                  {
                    OFFSET 3.7188 -0.188293 -0.2328
                    CHANNELS 3 Zrotation Xrotation Yrotation
                    JOINT LeftHandRing3
                    {
                      OFFSET 2.1191 -0.106598 -0.1332
                      CHANNELS 3 Zrotation Xrotation Yrotation
                      End Site
                      {
                        OFFSET 1.8737 -0.2304 -0.0886
                      }
                    }
                  }
                }
                JOINT LeftHandPinky1
                {
                  OFFSET 7.9094 -0.601089 -3.4825
                  CHANNELS 3 Zrotation Xrotation Yrotation
                  JOINT LeftHandPinky2
                  {
                    OFFSET 2.2874 -0.477005 -0.6314
                    CHANNELS 3 Zrotation Xrotation Yrotation
                    JOINT LeftHandPinky3
                    {
                      OFFSET 1.6774 -0.349396 -0.4633
                      CHANNELS 3 Zrotation Xrotation Yrotation
                      End Site
                      {
                        OFFSET 1.4888 -0.4091 -0.3416
                      }
                    }
                  }
                }
                JOINT LeftHandThumb1
                {
                  OFFSET 1.833 -1.3875 1.3896
                  CHANNELS 3 Zrotation Xrotation Yrotation
                  JOINT LeftHandThumb2
                  {
                    OFFSET 3.4129 -1.121 2.5732
                    CHANNELS 3 Zrotation Xrotation Yrotation
                    JOINT LeftHandThumb3
                    {
                      OFFSET 2.2474 -0.804199 1.6192
                      CHANNELS 3 Zrotation Xrotation Yrotation
                      End Site
                      {
                        OFFSET 1.6527 -0.5689 1.1317
                      }
                    }
                  }
                }
              }
            }
          }
        }
        JOINT RightShoulder
        {
          OFFSET -2.2086 21.1115 7.2329
          CHANNELS 3 Zrotation Xrotation Yrotation
          JOINT RightArm
          {
            OFFSET -13.1216 3.0287 -4.9007
            CHANNELS 3 Zrotation Xrotation Yrotation
            JOINT RightForeArm
            {
              OFFSET -27.4081 -0.0973053 -0.2375
              CHANNELS 3 Zrotation Xrotation Yrotation
              JOINT RightHand
              {
                OFFSET -22.8641 0.0664063 -0.1369
                CHANNELS 3 Zrotation Xrotation Yrotation
                JOINT RightHandIndex1
                {
                  OFFSET -8.8614 0.774994 2.4612
                  CHANNELS 3 Zrotation Xrotation Yrotation
                  JOINT RightHandIndex2
                  {
                    OFFSET -3.3146 -0.808304 0.5841
                    CHANNELS 3 Zrotation Xrotation Yrotation
                    JOINT RightHandIndex3
                    {
                      OFFSET -2.2628 -0.552002 0.3989
                      CHANNELS 3 Zrotation Xrotation Yrotation
                      End Site
                      {
                        OFFSET -1.6102 -0.4807 0.2612
                      }
                    }
                  }
                }
                JOINT RightHandMiddle1
                {
                  OFFSET -8.9937 0.894989 0.2143
                  CHANNELS 3 Zrotation Xrotation Yrotation
                  JOINT RightHandMiddle2
                  {
                    OFFSET -4.0984 0.0113983 -0.0242
                    CHANNELS 3 Zrotation Xrotation Yrotation
                    JOINT RightHandMiddle3
                    {
                      OFFSET -2.2716 0.00691223 -0.0138001
                      CHANNELS 3 Zrotation Xrotation Yrotation
                      End Site
                      {
                        OFFSET -2.0404 -0.1441 0.0027
                      }
                    }
                  }
                }
                JOINT RightHandRing1
                {
                  OFFSET -8.5234 0.597198 -2.0164
                  CHANNELS 3 Zrotation Xrotation Yrotation
                  JOINT RightHandRing2
                  {
                    OFFSET -3.7188 -0.188309 -0.2328
                    CHANNELS 3 Zrotation Xrotation Yrotation
                    JOINT RightHandRing3
                    {
                      OFFSET -2.1191 -0.106598 -0.1332
                      CHANNELS 3 Zrotation Xrotation Yrotation
                      End Site
                      {
                        OFFSET -1.8737 -0.2304 -0.0886
                      }
                    }
                  }
                }
                JOINT RightHandPinky1
                {
                  OFFSET -7.9094 -0.601105 -3.4825
                  CHANNELS 3 Zrotation Xrotation Yrotation
                  JOINT RightHandPinky2
                  {
                    OFFSET -2.2874 -0.477005 -0.6314
                    CHANNELS 3 Zrotation Xrotation Yrotation
                    JOINT RightHandPinky3
                    {
                      OFFSET -1.6774 -0.349396 -0.4633
                      CHANNELS 3 Zrotation Xrotation Yrotation
                      End Site
                      {
                        OFFSET -1.4888 -0.4091 -0.3416
                      }
                    }
                  }
                }
                JOINT RightHandThumb1
                {
                  OFFSET -1.833 -1.38751 1.3896
                  CHANNELS 3 Zrotation Xrotation Yrotation
                  JOINT RightHandThumb2
                  {
                    OFFSET -3.41299 -1.12099 2.5732
                    CHANNELS 3 Zrotation Xrotation Yrotation
                    JOINT RightHandThumb3
                    {
                      OFFSET -2.24741 -0.804108 1.6192
                      CHANNELS 3 Zrotation Xrotation Yrotation
                      End Site
                      {
                        OFFSET -1.6527 -0.5689 1.1317
                      }
                    }
                  }
                }
              }
            }
          }
        }
      }
    }
  }
  JOINT RightUpLeg
  {
    OFFSET -9.1966 3.8861 -0.7581
    CHANNELS 3 Zrotation Xrotation Yrotation
    JOINT RightLeg
    {
      OFFSET -0.7359 -41.0265 0
      CHANNELS 3 Zrotation Xrotation Yrotation
      JOINT RightFoot
      {
        OFFSET 0 -40.2855 0
        CHANNELS 3 Zrotation Xrotation Yrotation
        JOINT RightToeBase
        {
          OFFSET 0 -5.6122 11.7359
          CHANNELS 3 Zrotation Xrotation Yrotation
          End Site
          {
            OFFSET 0 0 7.8731
          }
        }
      }
    }
  }
  JOINT LeftUpLeg
  {
    OFFSET 9.1965 3.8864 -0.7581
    CHANNELS 3 Zrotation Xrotation Yrotation
    JOINT LeftLeg
    {
      OFFSET 0.7359 -41.0268 0
      CHANNELS 3 Zrotation Xrotation Yrotation
      JOINT LeftFoot
      {
        OFFSET 0 -40.2855 0
        CHANNELS 3 Zrotation Xrotation Yrotation
        JOINT LeftToeBase
        {
          OFFSET 0 -5.6122 11.7359
          CHANNELS 3 Zrotation Xrotation Yrotation
          End Site
          {
            OFFSET 0 0 7.8731
          }
        }
      }
    }
  }
}
MOTION
Frames:	6
Frame Time:	0.0333333
5.84602e-005 68.8428 3.50346 0 0 -0 0 0 -0 0 0 -0 0 0 -0 0 0 -0 0 0 -0 0 0 -0 0 0 -0 0 0 -0 0 0 -0 0 0 -0 0 0 -0 0 0 -0 0 0 -0 -0.0146107 -8.87603e-005 -2.63497e-007 2.99804e-018 -2.42657e-020 -1.42182e-022 0 0 -0 -0.0187562 -0.001176 5.858e-005 5.06224e-018 3.88251e-019 1.21329e-020 0 0 -0 -0.012269 -0.00324817 0.000675346 -1.74678e-018 3.88251e-019 -0 0 0 -0 0 0 -0 0 0 -0 0 0 -0 0 0 -0 0 0 -0 0 0 -0 0 0 -0 0 0 -0 0 0 -0 0 0 -0 0.0149955 -9.10982e-005 2.64101e-007 -9.69331e-018 1.21329e-020 -4.7394e-023 0 0 -0 0.0189956 -0.00119102 -5.96516e-005 -5.41541e-019 0 2.42657e-020 0 0 -0 0.0122698 -0.00324857 -0.000673756 -2.00796e-019 0 -1.94126e-019 0 0 -0 0 0 -0 0 0 -0 3.39842 1.33031 -0.0637918 -5.65207e-008 0.834868 -0.000436188 -3.39935 -2.16518 -0.0642563 -8.89002e-024 -1.18485e-023 -1.48106e-024 -3.39844 1.35642 0.0640283 -3.18788e-007 0.782166 -0.000588827 3.39931 -2.13858 0.0634662 1.1399e-023 0 -0 
-43.8154 2.18104 6.29634 -180 -89.9981 -180 -0.671199 8.11503 0.155346 -1.38609 16.2276 0.414184 -1.38609 16.2276 0.414185 -1.76666e-005 17.9984 9.96203e-006 -1.32058e-006 -55.0006 -1.24196e-006 15.5839 3.59581 16.812 -39.9266 28.6096 40.4701 32.0523 5.71463 -41.752 -7.08972 23.5991 0.217611 4.77083e-015 6.36111e-015 2.38542e-015 -3.97569e-016 -3.18055e-015 3.18055e-015 2.78299e-015 -3.18055e-015 1.59028e-015 4.77083e-015 6.36111e-015 2.38542e-015 -0.0146012 -8.96283e-005 -5.52776e-008 3.18055e-015 -3.18055e-015 1.59028e-015 4.77083e-015 6.36111e-015 2.38542e-015 -0.018763 -0.00117753 6.02622e-005 -1.59028e-015 -6.36111e-015 -7.95139e-016 4.77083e-015 6.36111e-015 2.38542e-015 -0.012268 -0.00324617 0.000677401 -3.44059e-007 1.05032e-006 6.72004e-007 4.77083e-015 6.36111e-015 2.38542e-015 -3.97569e-016 -3.18055e-015 3.18055e-015 2.78299e-015 -3.18055e-015 1.59028e-015 -0.60742 0.433275 -8.61063 77.1126 0.634027 -30.2949 -18.5248 7.67727 68.2526 7.08677 23.5989 -0.220556 -1.19271e-015 2.38542e-015 1.59028e-015 3.97569e-016 6.16232e-015 4.77083e-015 -1.98785e-015 3.08116e-015 3.18055e-015 -1.19271e-015 2.38542e-015 1.59028e-015 0.0150229 -8.90561e-005 1.84108e-006 1.98785e-015 -3.97569e-016 -0 -1.19271e-015 2.38542e-015 1.59028e-015 0.0189129 -0.00119057 -6.28663e-005 7.95139e-016 3.37934e-015 3.18055e-015 -1.19271e-015 2.38542e-015 1.59028e-015 0.0124042 -0.00328365 -0.000688617 1.19271e-015 -6.85807e-015 -0 -1.19271e-015 2.38542e-015 1.59028e-015 3.97569e-016 6.16232e-015 4.77083e-015 -1.98785e-015 3.08116e-015 3.18055e-015 -6.74342 -15.5822 -3.61336 4.16636 43.4857 -4.1457 5.24757 12.5478 11.6334 -7.95139e-016 0 7.95139e-016 16.0057 1.62108 1.04683 -1.45685 8.98959 1.26403 -0.608752 29.1081 10.8251 -1.88132e-007 4.37529e-008 9.08198e-008 
-43.8158 2.182 6.29647 -180 -89.9981 -180 -0.671199 8.11503 0.155346 -1.38609 16.2276 0.414184 -1.38609 16.2276 0.414185 -6.94183e-007 17.9983 -5.3798e-007 0.786269 -54.9126 0.623989 15.5839 3.59581 16.812 -39.9266 28.6096 40.4701 32.0523 5.71463 -41.752 -7.08972 23.5991 0.217612 3.18055e-015 9.54166e-015 7.95139e-016 1.98785e-015 -3.18055e-015 -2.38542e-015 3.18055e-015 6.36111e-015 7.95139e-016 3.18055e-015 9.54166e-015 7.95139e-016 -0.0145962 -8.79402e-005 1.06897e-008 -7.95139e-016 -3.18055e-015 7.95139e-016 3.18055e-015 9.54166e-015 7.95139e-016 -0.0187672 -0.00117817 5.96157e-005 1.19271e-015 -6.36111e-015 7.95139e-016 3.18055e-015 9.54166e-015 7.95139e-016 -0.0122694 -0.0032456 0.000678949 -8.82781e-032 3.18055e-015 1.59028e-015 3.18055e-015 9.54166e-015 7.95139e-016 1.98785e-015 -3.18055e-015 -2.38542e-015 3.18055e-015 6.36111e-015 7.95139e-016 -0.60742 0.433275 -8.61063 77.1126 0.634038 -30.2949 -18.5993 7.48934 68.8172 7.0859 23.0935 -0.0753504 -2.38542e-015 -4.87022e-015 1.59028e-015 0 1.19271e-015 -0 -1.59028e-015 3.77691e-015 3.18055e-015 -2.38542e-015 -4.87022e-015 1.59028e-015 0.0150036 -9.23182e-005 -1.60867e-006 -1.21382e-031 4.37326e-015 1.59028e-015 -2.38542e-015 -4.87022e-015 1.59028e-015 0.0189951 -0.00119202 -5.82254e-005 -1.19271e-015 4.96962e-015 1.59028e-015 -2.38542e-015 -4.87022e-015 1.59028e-015 0.0122422 -0.00324249 -0.000677432 -1.15865e-031 2.08724e-015 3.18055e-015 -2.38542e-015 -4.87022e-015 1.59028e-015 0 1.19271e-015 -0 -1.59028e-015 3.77691e-015 3.18055e-015 -6.81445 -15.8275 -3.82573 4.19565 44.2806 -4.23475 5.25415 12.5418 11.6329 -7.0034e-007 2.20836e-007 -5.10575e-008 16.006 1.62216 1.04682 -1.45684 8.98875 1.26389 -0.609075 29.1078 10.8251 1.50078e-006 -9.30168e-008 1.01433e-006 
-43.8161 2.18296 6.2966 -180 -89.9981 -180 -0.671199 8.11503 0.155346 -1.38609 16.2276 0.414184 -1.38609 16.2276 0.414185 -1.76666e-005 17.9984 9.96203e-006 1.56977 -54.8197 1.24499 15.5839 3.59581 16.812 -39.9266 28.6096 40.4701 32.0523 5.71462 -41.752 -7.08972 23.5991 0.217612 -3.03613e-008 -4.88715e-007 -3.76587e-007 5.16753e-007 -9.39323e-007 -1.49727e-006 -3.03612e-008 -4.88716e-007 -3.76587e-007 -3.03613e-008 -4.88715e-007 -3.76587e-007 -0.0145992 -9.10291e-005 -7.55023e-007 -3.97569e-016 0 7.95139e-016 -3.03613e-008 -4.88715e-007 -3.76587e-007 -0.0187596 -0.00117695 5.60572e-005 -9.93923e-015 0 1.59028e-015 -3.03613e-008 -4.88715e-007 -3.76587e-007 -0.0122595 -0.0032486 0.000674621 -7.95139e-016 1.59028e-014 -3.18055e-015 -3.03613e-008 -4.88715e-007 -3.76587e-007 5.16753e-007 -9.39323e-007 -1.49727e-006 -3.03612e-008 -4.88716e-007 -3.76587e-007 -0.60742 0.433275 -8.61063 77.1126 0.63403 -30.2949 -18.6722 7.29995 69.3833 7.08644 22.5872 0.0695839 0 5.96354e-015 -0 -7.44847e-032 2.68359e-015 1.59028e-015 -7.95139e-016 -2.98177e-016 1.59028e-015 0 5.96354e-015 -0 0.015061 -9.07113e-005 -3.10323e-006 -4.55846e-007 8.43312e-007 -1.17643e-006 0 5.96354e-015 -0 0.0189761 -0.00119063 -6.55124e-005 7.95139e-016 -4.87022e-015 3.18055e-015 0 5.96354e-015 -0 0.0122863 -0.0032551 -0.000683401 1.59028e-015 6.06293e-015 3.18055e-015 0 5.96354e-015 -0 -7.44847e-032 2.68359e-015 1.59028e-015 -7.95139e-016 -2.98177e-016 1.59028e-015 -6.88651 -16.0726 -4.03906 4.22703 45.0783 -4.32592 5.26062 12.536 11.6325 -8.10814e-008 5.7622e-006 -1.31989e-007 16.0062 1.62319 1.04682 -1.45684 8.98805 1.26373 -0.609427 29.1075 10.8252 1.29095e-006 -1.42724e-007 1.23259e-006 
-43.8165 2.18392 6.29674 -180 -89.9981 -180 -0.6712 8.11503 0.155346 -1.38609 16.2276 0.414184 -1.38609 16.2276 0.414185 -1.75045e-005 17.9984 9.68165e-006 2.35031 -54.7218 1.86279 15.5839 3.59581 16.812 -39.9266 28.6096 40.4701 32.0523 5.71462 -41.752 -7.08972 23.5991 0.217612 -3.03613e-008 -4.88715e-007 -3.76587e-007 5.16753e-007 -9.39323e-007 -1.49727e-006 -3.03612e-008 -4.88716e-007 -3.76587e-007 -3.03613e-008 -4.88715e-007 -3.76587e-007 -0.0145941 -9.05034e-005 -5.35463e-007 1.59028e-015 0 -2.38542e-015 -3.03613e-008 -4.88715e-007 -3.76587e-007 -0.018772 -0.00118024 5.83483e-005 3.18055e-015 -3.18055e-015 7.95139e-016 -3.03613e-008 -4.88715e-007 -3.76587e-007 -0.0122595 -0.0032486 0.000674621 4.41391e-032 -3.18055e-015 7.95139e-016 -3.03613e-008 -4.88715e-007 -3.76587e-007 5.16753e-007 -9.39323e-007 -1.49727e-006 -3.03612e-008 -4.88716e-007 -3.76587e-007 -0.60742 0.433275 -8.61063 77.1126 0.634029 -30.2949 -18.7434 7.10916 69.9511 7.08835 22.08 0.214297 -1.59028e-015 -2.5842e-015 -3.18055e-015 -1.59028e-015 -5.76476e-015 -3.18055e-015 -3.18055e-015 -6.55989e-015 -1.59028e-015 -1.59028e-015 -2.5842e-015 -3.18055e-015 0.015002 -8.78962e-005 -5.23878e-006 -1.59028e-015 2.5842e-015 4.77083e-015 -1.59028e-015 -2.5842e-015 -3.18055e-015 0.0189989 -0.00118723 -5.81781e-005 1.43452e-031 -5.1684e-015 1.59028e-015 -1.59028e-015 -2.5842e-015 -3.18055e-015 0.0122558 -0.00324296 -0.000675952 -7.95139e-016 1.80894e-014 -4.77083e-015 -1.59028e-015 -2.5842e-015 -3.18055e-015 -1.59028e-015 -5.76476e-015 -3.18055e-015 -3.18055e-015 -6.55989e-015 -1.59028e-015 -6.95969 -16.3171 -4.25335 4.26071 45.8784 -4.41928 5.26699 12.5304 11.632 1.59028e-015 2.22639e-014 -1.59028e-015 16.0065 1.62434 1.04681 -1.45684 8.9871 1.26357 -0.609777 29.1073 10.8253 1.18238e-007 2.7909e-006 -1.31806e-006 
-43.817 2.1849 6.29688 -180 -89.9981 -180 -0.671199 8.11503 0.155346 -1.38609 16.2276 0.414184 -1.38609 16.2276 0.414185 -1.52289e-006 17.9984 -4.49249e-007 3.12771 -54.619 2.47723 15.5839 3.59581 16.812 -39.9266 28.6096 40.4701 32.0523 5.71463 -41.752 -7.08972 23.5991 0.217612 3.18055e-015 9.54166e-015 7.95139e-016 1.98785e-015 -3.18055e-015 -2.38542e-015 3.18055e-015 6.36111e-015 7.95139e-016 3.18055e-015 9.54166e-015 7.95139e-016 -0.0145962 -8.79402e-005 1.06897e-008 -7.95139e-016 -3.18055e-015 7.95139e-016 3.18055e-015 9.54166e-015 7.95139e-016 -0.0187526 -0.00117685 5.94993e-005 -1.59028e-015 -9.54166e-015 7.95139e-016 3.18055e-015 9.54166e-015 7.95139e-016 -0.0122503 -0.00324128 0.000678428 -3.1894e-008 -4.89076e-007 -3.76555e-007 3.18055e-015 9.54166e-015 7.95139e-016 1.98785e-015 -3.18055e-015 -2.38542e-015 3.18055e-015 6.36111e-015 7.95139e-016 -0.60742 0.433275 -8.61063 77.1125 0.63404 -30.2949 -18.8129 6.91699 70.5204 7.09165 21.5717 0.358781 -3.97569e-015 -6.55989e-015 1.59028e-015 -2.38542e-015 -9.74045e-015 -0 -7.95139e-016 -3.57812e-015 -0 -3.97569e-015 -6.55989e-015 1.59028e-015 0.014948 -9.32948e-005 9.65943e-007 -2.38542e-015 9.93923e-016 1.59028e-015 -3.97569e-015 -6.55989e-015 1.59028e-015 0.019068 -0.00119364 -5.85198e-005 -5.29885e-007 7.74318e-007 -1.05806e-006 -3.97569e-015 -6.55989e-015 1.59028e-015 0.0122791 -0.00325386 -0.000679509 -3.18055e-015 -1.19271e-015 -1.11319e-014 -3.97569e-015 -6.55989e-015 1.59028e-015 -2.38542e-015 -9.74045e-015 -0 -7.95139e-016 -3.57812e-015 -0 -7.03399 -16.5607 -4.46864 4.29675 46.6806 -4.51489 5.27326 12.5249 11.6316 1.59028e-015 -3.18055e-015 7.95139e-016 16.0068 1.62544 1.0468 -1.45683 8.9863 1.2634 -0.610161 29.107 10.8254 6.3794e-007 -3.16377e-006 1.18696e-006 
